<?xml version="1.0" encoding="utf-8"?>
<!-- Generator: Adobe Illustrator 16.0.0, SVG Export Plug-In . SVG Version: 6.00 Build 0)  -->
<svg version="1.2" baseProfile="tiny" id="Layer_1" xmlns="http://www.w3.org/2000/svg" xmlns:xlink="http://www.w3.org/1999/xlink"
	 x="0px" y="0px" width="792px" height="612px" viewBox="0 0 792 612" overflow="visible" xml:space="preserve">
<path fill="none" stroke="#000000" stroke-width="6" stroke-miterlimit="10" d="M404.5,363
	c-7.096,8.305-20.592,19.621-19.124,31.684c2.853,23.433,41.121,20.663,54.104,7.862c32.983-32.52-66.732-91.745-60.48-28.046"/>
<path fill="none" stroke="#000000" stroke-width="6" stroke-miterlimit="10" d="M468,336c-2.943,46.603,51.857,48.058,55.032,7.042
	c29.466,15.692,27.462-78.768,14.968-88.542"/>
<path fill="none" stroke="#000000" stroke-width="6" stroke-miterlimit="10" d="M193.75,472c-2.311-9.597-8.833-17.805-11.424-27.49
	c-4.917-18.386-0.146-37.53,7.983-54.312c7.25-14.967,11.643-10.953,19.147,2.002c6.828,11.79,14.254,25.104,15.794,38.879
	c0.961-14.85,13.275-54.429,34.861-46.401c12.03,4.475,19.459,26.013,24.8,36.213c6.937,13.246,13.857,26.453,21.838,39.109"/>
<path fill="none" stroke="#000000" stroke-width="6" stroke-miterlimit="10" d="M322.75,406.25
	c21.305,1.503,33.384-37.25,10.972-32.496c-15.589,3.308-23.597,22.645-17.482,36.354c8.402,18.837,29.162,20.067,46.51,15.393"/>
</svg>
