<?xml version="1.0" encoding="utf-8"?>
<!-- Generator: Adobe Illustrator 16.0.0, SVG Export Plug-In . SVG Version: 6.00 Build 0)  -->
<svg version="1.2" baseProfile="tiny" id="Layer_1" xmlns="http://www.w3.org/2000/svg" xmlns:xlink="http://www.w3.org/1999/xlink"
	 x="0px" y="0px" width="792px" height="612px" viewBox="0 0 792 612" overflow="visible" xml:space="preserve">
<line fill="none" stroke="#231F20" stroke-width="6" stroke-miterlimit="10" x1="256" y1="414" x2="665" y2="414"/>
<path fill="none" stroke="#F383A7" stroke-width="6" stroke-miterlimit="10" d="M303.333,224.667"/>
<path fill="none" stroke="#F383A7" stroke-width="6" stroke-miterlimit="10" d="M326.667,186.667"/>
<path fill="none" stroke="#F0BBD7" stroke-width="6" stroke-miterlimit="10" d="M326.667,186.667"/>
<path fill="none" stroke="#F0BBD7" stroke-width="6" stroke-miterlimit="10" d="M371.333,218"/>
<path fill="none" stroke="#231F20" stroke-width="6" stroke-miterlimit="10" d="M203,327.5c33-60,100.333-95,100.333-95
	s10.792-42.999,23.333-45.833C340.405,183.562,371.333,221,371.333,221s2.895,0.57,3.873,0.667
	C446.75,228.75,510.32,242,546.479,251.135c1.234,0.312,5.021,0.865,5.021,0.865s43.131-35.735,48.5-31
	c4.158,3.667,8.75,30.389,9,40.5c0.662,26.771-1.5,40.242-3.779,51.316C603.948,319,605.355,322.355,607,324
	c35.5,35.5,66.768,83.03,61.5,93"/>
<path fill="none" stroke="#231F20" stroke-width="6" stroke-miterlimit="10" d="M569.5,347c-66.25-79-121,2.724-67,67"/>
<path fill="none" stroke="#231F20" stroke-width="6" stroke-miterlimit="10" d="M258.667,414
	c-41.719,53.313-59.424,65.795-82.966,71.333c-26.804,6.306-65.034-24-21.701-71.333"/>
<path fill="none" stroke="#231F20" stroke-width="6" stroke-miterlimit="10" d="M326.25,345.417
	c13.583,22.166,29.958-2.875,31.583,1.916C360.268,354.512,373,363.624,387,355.5"/>
<path fill="none" stroke="#231F20" stroke-width="12" stroke-miterlimit="10" d="M291.813,338.438
	c-3.519,1.831-7.037,5.725-3.722,8.959c4.737,4.624,14.955,2.213,10.004-5.948c-2.47-4.072-6.075-2.077-9.345-2.447"/>
<path fill="none" stroke="#231F20" stroke-width="12" stroke-miterlimit="10" d="M457.113,350.888
	c-3.649,2.021-7.3,6.315-3.86,9.886c4.912,5.102,15.511,2.438,10.375-6.563c-2.561-4.493-6.299-2.292-9.69-2.7"/>
<path fill="none" stroke="#F38EBA" stroke-width="6" stroke-miterlimit="10" d="M535.038,342.537c0.629-0.947,4.771,0.078,4.25,2.92
	c-0.629,3.42-4.331,5.34-5.45,1.38c-0.473-1.671,0.695-3.688,1.533-5.05"/>
<path fill="none" stroke="#F38EBA" stroke-width="6" stroke-miterlimit="10" d="M513.108,337.654c0.629-0.947,4.771,0.078,4.25,2.92
	c-0.63,3.42-4.331,5.34-5.45,1.38c-0.474-1.671,0.694-3.689,1.533-5.05"/>
<path fill="none" stroke="#F38EBA" stroke-width="6" stroke-miterlimit="10" d="M506.025,360.528c0.629-0.947,4.771,0.078,4.25,2.92
	c-0.629,3.42-4.331,5.34-5.45,1.38c-0.474-1.671,0.694-3.689,1.533-5.05"/>
<path fill="none" stroke="#F38EBA" stroke-width="12" stroke-miterlimit="10" d="M528.467,361.837
	c1.183-2.272,8.958,0.188,7.979,7.01c-1.181,8.209-8.131,12.816-10.231,3.313c-0.886-4.014,1.309-8.858,2.88-12.123"/>
<path fill="none" stroke="#231F20" stroke-width="6" stroke-miterlimit="10" d="M203.548,326.513c-3.25,4-32.471,44.57-50.971,89.07
	"/>
<line fill="none" stroke="#000000" stroke-width="6" stroke-miterlimit="10" x1="134.403" y1="496.5" x2="113.5" y2="522.5"/>
<line fill="none" stroke="#000000" stroke-width="6" stroke-miterlimit="10" x1="119.167" y1="481.5" x2="100.833" y2="496.5"/>
<line fill="none" stroke="#000000" stroke-width="6" stroke-miterlimit="10" x1="152.577" y1="499.5" x2="143.167" y2="526.167"/>
</svg>
