<?xml version="1.0" encoding="utf-8"?>
<!-- Generator: Adobe Illustrator 16.0.0, SVG Export Plug-In . SVG Version: 6.00 Build 0)  -->
<svg version="1.2" baseProfile="tiny" id="Layer_1" xmlns="http://www.w3.org/2000/svg" xmlns:xlink="http://www.w3.org/1999/xlink"
	 x="0px" y="0px" width="792px" height="612px" viewBox="0 0 792 612" xml:space="preserve">
<path fill="none" stroke="#000000" stroke-width="6" stroke-miterlimit="10" d="M212.5,425.5
	c-13.162-21.42-42.425-62.046-28.384-89.985c20.603-40.996,27.642,8.308,6.711,32.883c79.163-30.51,59.839,70.809,30.673,58.103"/>
<path fill="none" stroke="#000000" stroke-width="6" stroke-miterlimit="10" d="M273.5,355.5
	c-18.625,5.789-20.844,34.585,4.154,32.439c11.378-0.977,14.868-6.684,10.219-16.505c-6.948-14.675-26.318-14.778-39.706-12.268"/>
<path fill="none" stroke="#000000" stroke-width="6" stroke-miterlimit="10" d="M287.167,344.5
	c8.562,7.722,17.185,22.568,21.606,33.265c-5.172-11.471-17.6-34.81-5.501-46.499c11.06-10.687,34.329,17.938,38.895,28.901"/>
<path fill="none" stroke="#000000" stroke-width="6" stroke-miterlimit="10" d="M362.833,311.834
	c-13.473-10.647-14.129,11.887-9.994,20.134c6.475,12.912,21.501,19.641,34.602,15.489c3.833-11.241-9.861-24.017-16.89-31.487
	c-1.999,9.721,13.738,18.227,19.015,24.994c5.212,6.685,21.843,24.833,22.952,33.519c3.904,30.566-63.049,22.301-77.685,17.685"/>
<path fill="none" stroke="#000000" stroke-width="6" stroke-miterlimit="10" d="M388.5,283.5c-8.467,1.996-7.865,18.2-4.427,24.524
	c4.388,8.073,13.632,9.644,22.867,8.766C439.093,313.731,421,275.375,388.5,283.5"/>
<path fill="none" stroke="#000000" stroke-width="6" stroke-miterlimit="10" d="M471.833,318.167
	c-24.936-2.79-22.203,35.336-16.35,48.975c16.659,38.811,46.832,46.692,75.684,15.692"/>
<path fill="none" stroke="#000000" stroke-width="6" stroke-miterlimit="10" d="M536.167,330.834
	c-23.032-10.962-22.701,36.006-11.673,39.606c11.046,3.605,25.416-24.972,14.287-33.561c-0.256-0.125-0.278-0.134-0.066-0.026
	c10.237,5.978,24.942,11.814,36.785,12.646"/>
<path fill="none" stroke="#000000" stroke-width="6" stroke-miterlimit="10" d="M520.833,282.834
	c14.037,7.36,26.074,21.964,39.182,31.477c10.248,7.438,20.003,15.233,29.818,23.189"/>
<path fill="none" stroke="#000000" stroke-width="6" stroke-miterlimit="10" d="M556.5,288.834c-12.107,5.8-22.36,17.938-34,25.333"
	/>
</svg>
